name analog
datacolumns 19
datarows 39
range 0.3565000000000001 0.3755000000000001
endheader
time	ground_force_vx	ground_force_vy	ground_force_vz	ground_force_px	ground_force_py	ground_force_pz	l_ground_force_vx	l_ground_force_vy	l_ground_force_vz	l_ground_force_px	l_ground_force_py	l_ground_force_pz	ground_torque_x	ground_torque_y	ground_torque_z	l_ground_torque_x	l_ground_torque_y	l_ground_torque_z
0.3565000000000001	-0.0	-0.0	-0.0	-11.33522891998291	-4.755171775817871	-935.19873046875	-0.0	-0.0	-0.0	-0.0	-0.0	-0.0	-0.0	-0.0	-0.0	-0.0	-0.0	-0.0
0.3570000000000001	-0.0	-0.0	-0.0	-10.941864013671877	-4.105812072753906	-934.4757690429688	-0.0	-0.0	-0.0	-0.0	-0.0	-0.0	-0.0	-0.0	-0.0	-0.0	-0.0	-0.0
0.3575000000000001	-0.0	-0.0	-0.0	-10.41309642791748	-2.9935436248779297	-933.2230224609376	-0.0	-0.0	-0.0	-0.0	-0.0	-0.0	-0.0	-0.0	-0.0	-0.0	-0.0	-0.0
0.3580000000000001	-0.0	-0.0	-0.0	-10.311420440673828	-1.1586952209472656	-930.2760009765624	-0.0	-0.0	-0.0	-0.0	-0.0	-0.0	-0.0	-0.0	-0.0	-0.0	-0.0	-0.0
0.3585000000000001	-0.0	-0.0	-0.0	-10.557007789611816	-0.1399403810501098	-928.1892700195312	-0.0	-0.0	-0.0	-0.0	-0.0	-0.0	-0.0	-0.0	-0.0	-0.0	-0.0	-0.0
0.3590000000000001	-0.0	-0.0	-0.0	-10.17764377593994	0.9433269500732422	-925.9786987304688	-0.0	-0.0	-0.0	-0.0	-0.0	-0.0	-0.0	-0.0	-0.0	-0.0	-0.0	-0.0
0.3595000000000001	-0.0	-0.0	-0.0	-9.590389251708984	1.2478256225585938	-924.978271484375	-0.0	-0.0	-0.0	-0.0	-0.0	-0.0	-0.0	-0.0	-0.0	-0.0	-0.0	-0.0
0.3600000000000001	-0.0	-0.0	-0.0	-9.634735107421877	1.9688351154327397	-922.56396484375	-0.0	-0.0	-0.0	-0.0	-0.0	-0.0	-0.0	-0.0	-0.0	-0.0	-0.0	-0.0
0.3605000000000001	-0.0	-0.0	-0.0	-9.804795265197754	2.903980493545532	-921.0601806640624	-0.0	-0.0	-0.0	-0.0	-0.0	-0.0	-0.0	-0.0	-0.0	-0.0	-0.0	-0.0
0.3610000000000001	-0.0	-0.0	-0.0	-9.099472045898438	3.1943392753601074	-919.6580200195312	-0.0	-0.0	-0.0	-0.0	-0.0	-0.0	-0.0	-0.0	-0.0	-0.0	-0.0	-0.0
0.3615000000000001	-0.0	-0.0	-0.0	-8.676697731018066	3.40116024017334	-919.1226806640624	-0.0	-0.0	-0.0	-0.0	-0.0	-0.0	-0.0	-0.0	-0.0	-0.0	-0.0	-0.0
0.3620000000000001	-0.0	-0.0	-0.0	-8.104089736938477	3.84666109085083	-918.86279296875	-0.0	-0.0	-0.0	-0.0	-0.0	-0.0	-0.0	-0.0	-0.0	-0.0	-0.0	-0.0
0.3625000000000001	-0.0	-0.0	-0.0	-7.592659473419189	4.672384738922119	-918.1188354492188	-0.0	-0.0	-0.0	-0.0	-0.0	-0.0	-0.0	-0.0	-0.0	-0.0	-0.0	-0.0
0.3630000000000001	-0.0	-0.0	-0.0	-7.5074639320373535	4.878259658813477	-916.0396118164062	-0.0	-0.0	-0.0	-0.0	-0.0	-0.0	-0.0	-0.0	-0.0	-0.0	-0.0	-0.0
0.3635000000000001	-0.0	-0.0	-0.0	-6.20383358001709	6.458254814147949	-915.2388305664062	-0.0	-0.0	-0.0	-0.0	-0.0	-0.0	-0.0	-0.0	-0.0	-0.0	-0.0	-0.0
0.3640000000000001	-0.0	-0.0	-0.0	-5.939250946044922	8.09737491607666	-911.0543823242188	-0.0	-0.0	-0.0	-0.0	-0.0	-0.0	-0.0	-0.0	-0.0	-0.0	-0.0	-0.0
0.3645000000000001	-0.0	-0.0	-0.0	-6.409807205200195	10.555283546447754	-908.2731323242188	-0.0	-0.0	-0.0	-0.0	-0.0	-0.0	-0.0	-0.0	-0.0	-0.0	-0.0	-0.0
0.3650000000000001	-0.0	-0.0	-0.0	-6.001880168914795	11.93026638031006	-904.5985107421876	-0.0	-0.0	-0.0	-0.0	-0.0	-0.0	-0.0	-0.0	-0.0	-0.0	-0.0	-0.0
0.3655000000000001	-0.0	-0.0	-0.0	-6.155525207519531	13.001116752624512	-903.0293579101562	-0.0	-0.0	-0.0	-0.0	-0.0	-0.0	-0.0	-0.0	-0.0	-0.0	-0.0	-0.0
0.3660000000000001	-0.0	-0.0	-0.0	-5.454758644104004	11.726494789123535	-901.01318359375	-0.0	-0.0	-0.0	-0.0	-0.0	-0.0	-0.0	-0.0	-0.0	-0.0	-0.0	-0.0
0.3665000000000001	-0.0	-0.0	-0.0	-5.5436859130859375	9.817121505737305	-899.499267578125	-0.0	-0.0	-0.0	-0.0	-0.0	-0.0	-0.0	-0.0	-0.0	-0.0	-0.0	-0.0
0.3670000000000001	-0.0	-0.0	-0.0	-4.333414077758789	6.901682376861572	-898.5913696289062	-0.0	-0.0	-0.0	-0.0	-0.0	-0.0	-0.0	-0.0	-0.0	-0.0	-0.0	-0.0
0.3675000000000001	-0.0	-0.0	-0.0	-3.0072810649871826	5.043008327484131	-900.0014038085938	-0.0	-0.0	-0.0	-0.0	-0.0	-0.0	-0.0	-0.0	-0.0	-0.0	-0.0	-0.0
0.3680000000000001	-0.0	-0.0	-0.0	-1.8981341123580933	4.164437770843506	-899.8482055664062	-0.0	-0.0	-0.0	-0.0	-0.0	-0.0	-0.0	-0.0	-0.0	-0.0	-0.0	-0.0
0.3685000000000001	-0.0	-0.0	-0.0	-0.7014822363853455	3.0426244735717773	-899.0919799804688	-0.0	-0.0	-0.0	-0.0	-0.0	-0.0	-0.0	-0.0	-0.0	-0.0	-0.0	-0.0
0.3690000000000001	-0.0	-0.0	-0.0	0.0	2.635377883911133	-899.3966674804688	-0.0	-0.0	-0.0	-0.0	-0.0	-0.0	-0.0	-0.0	-0.0	-0.0	-0.0	-0.0
0.3695000000000001	-0.0	-0.0	-0.0	0.065366044640541	1.4766074419021606	-897.9249877929688	-0.0	-0.0	-0.0	-0.0	-0.0	-0.0	-0.0	-0.0	-0.0	-0.0	-0.0	-0.0
0.3700000000000001	-0.0	-0.0	-0.0	-0.4695939123630523	0.6861181855201721	-895.7710571289062	-0.0	-0.0	-0.0	-0.0	-0.0	-0.0	-0.0	-0.0	-0.0	-0.0	-0.0	-0.0
0.3705000000000001	-0.0	-0.0	-0.0	-0.6593961715698242	-0.5735324025154114	-894.4512329101562	-0.0	-0.0	-0.0	-0.0	-0.0	-0.0	-0.0	-0.0	-0.0	-0.0	-0.0	-0.0
0.3710000000000001	-0.0	-0.0	-0.0	-0.9972057342529296	-1.7782078981399536	-892.9927368164062	-0.0	-0.0	-0.0	-0.0	-0.0	-0.0	-0.0	-0.0	-0.0	-0.0	-0.0	-0.0
0.3715000000000001	-0.0	-0.0	-0.0	-1.92369544506073	-3.715904712677002	-889.5061645507812	-0.0	-0.0	-0.0	-0.0	-0.0	-0.0	-0.0	-0.0	-0.0	-0.0	-0.0	-0.0
0.3720000000000001	-0.0	-0.0	-0.0	-3.111158609390259	-4.517883777618408	-882.4635620117188	-0.0	-0.0	-0.0	-0.0	-0.0	-0.0	-0.0	-0.0	-0.0	-0.0	-0.0	-0.0
0.3725000000000001	-0.0	-0.0	-0.0	-3.0442116260528564	-4.428521633148193	-874.5407104492188	-0.0	-0.0	-0.0	-0.0	-0.0	-0.0	-0.0	-0.0	-0.0	-0.0	-0.0	-0.0
0.3730000000000001	-0.0	-0.0	-0.0	-1.7450660467147827	-4.089086055755615	-871.6048583984375	-0.0	-0.0	-0.0	-0.0	-0.0	-0.0	-0.0	-0.0	-0.0	-0.0	-0.0	-0.0
0.3735000000000001	-0.0	-0.0	-0.0	-0.3852897882461548	-4.249836921691895	-867.9183959960938	-0.0	-0.0	-0.0	-0.0	-0.0	-0.0	-0.0	-0.0	-0.0	-0.0	-0.0	-0.0
0.3740000000000001	-0.0	-0.0	-0.0	0.9887498021125792	-4.524428844451904	-867.3678588867188	-0.0	-0.0	-0.0	-0.0	-0.0	-0.0	-0.0	-0.0	-0.0	-0.0	-0.0	-0.0
0.3745000000000001	-0.0	-0.0	-0.0	1.7946994304656982	-5.258693695068359	-865.9556884765625	-0.0	-0.0	-0.0	-0.0	-0.0	-0.0	-0.0	-0.0	-0.0	-0.0	-0.0	-0.0
0.3750000000000001	-0.0	-0.0	-0.0	1.993634581565857	-6.446466445922852	-865.2908935546875	-0.0	-0.0	-0.0	-0.0	-0.0	-0.0	-0.0	-0.0	-0.0	-0.0	-0.0	-0.0
0.3755000000000001	-0.0	-0.0	-0.0	1.9434950351715088	-7.526429653167725	-863.2071533203125	-0.0	-0.0	-0.0	-0.0	-0.0	-0.0	-0.0	-0.0	-0.0	-0.0	-0.0	-0.0
